<?xml version="1.0" encoding="UTF-8"?>
<svg version="1.1" xmlns="http://www.w3.org/2000/svg" width="1024" height="1024">
<path d="M0 0 C337.92 0 675.84 0 1024 0 C1024 337.92 1024 675.84 1024 1024 C686.08 1024 348.16 1024 0 1024 C0 686.08 0 348.16 0 0 Z " fill="#2E3035" transform="translate(0,0)"/>
<path d="M0 0 C1.64748985 -0.0076664 1.64748985 -0.0076664 3.32826233 -0.01548767 C6.95351637 -0.0293699 10.57857998 -0.02842769 14.20385742 -0.02612305 C16.72963023 -0.03001111 19.25540239 -0.03434601 21.78117371 -0.03910828 C27.0745177 -0.04656785 32.36779211 -0.04642012 37.66113281 -0.04101562 C43.76188893 -0.03498204 49.86241405 -0.04727477 55.96313077 -0.06858569 C61.85137884 -0.08839111 67.73953708 -0.09136754 73.62781334 -0.08785057 C76.12398508 -0.08836292 78.62016058 -0.09358432 81.11631203 -0.10366249 C84.61287666 -0.1160459 88.10891212 -0.10922289 91.60546875 -0.09765625 C92.62966919 -0.10529999 93.65386963 -0.11294373 94.70910645 -0.12081909 C105.48082695 -0.04235292 113.11822364 2.88655233 120.99682617 10.2746582 C128.08155421 17.92334469 129.44870379 26.96370242 129.38500977 37.05175781 C129.3928952 38.60971321 129.3928952 38.60971321 129.40093994 40.19914246 C129.41406795 43.60858513 129.40542651 47.0175551 129.39526367 50.42700195 C129.39728662 52.81157012 129.4001999 55.19613768 129.40396118 57.58070374 C129.40837494 62.56948762 129.40198446 67.55810995 129.38793945 72.546875 C129.3708577 78.92314758 129.38068873 85.29904099 129.39865685 91.67529964 C129.40952815 96.59712042 129.4060328 101.51885219 129.39827347 106.44067574 C129.39628024 108.79087939 129.39869973 111.14109128 129.40571213 113.49128532 C129.4133806 116.78379406 129.40164618 120.0756999 129.38500977 123.36816406 C129.39108246 124.32795166 129.39715515 125.28773926 129.40341187 126.27661133 C129.30976175 136.34483436 127.03240669 144.85618895 119.99682617 152.2746582 C111.58051484 160.25657927 101.98390621 161.7295542 90.73901367 161.67871094 C89.66121643 161.68557419 88.58341919 161.69243744 87.47296143 161.69950867 C83.93911258 161.71768839 80.40571137 161.71395212 76.87182617 161.70825195 C74.39900571 161.71281749 71.92618651 161.71812417 69.45336914 161.72413635 C64.28225535 161.73304979 59.11129615 161.73066378 53.94018555 161.72070312 C47.32958187 161.70920731 40.71951188 161.72944413 34.10897827 161.75862026 C29.00615071 161.77700652 23.90345053 161.77668505 18.80059814 161.77098274 C16.36386363 161.77082987 13.9271203 161.77684564 11.49041748 161.78927422 C8.07815474 161.80423025 4.66687175 161.79347267 1.25463867 161.77636719 C0.25901917 161.78603516 -0.73660034 161.79570312 -1.76239014 161.80566406 C-12.52171339 161.69330251 -20.13322095 158.02259603 -27.86645508 150.65356445 C-32.64936299 145.32853535 -35.13878591 139.21297415 -35.11669922 132.05688477 C-35.11662369 131.23633606 -35.11654816 130.41578735 -35.11647034 129.57037354 C-35.11130905 128.69419373 -35.10614777 127.81801392 -35.10083008 126.9152832 C-35.09870766 125.55871613 -35.09870766 125.55871613 -35.09654236 124.17474365 C-35.09095293 121.29134794 -35.07840236 118.40803038 -35.06567383 115.5246582 C-35.06065746 113.56762808 -35.05609479 111.61059673 -35.05200195 109.65356445 C-35.04098696 104.86056567 -35.02372957 100.06762518 -35.00317383 95.2746582 C-42.5983723 95.31660046 -50.19285411 95.38919066 -57.78759766 95.48217773 C-60.36630777 95.51024401 -62.94510162 95.53152915 -65.52392578 95.5456543 C-69.25051303 95.56728278 -72.97610848 95.6140362 -76.70239258 95.6652832 C-77.83835373 95.66651184 -78.97431488 95.66774048 -80.1446991 95.66900635 C-94.85044918 95.93258379 -107.9720871 100.72303932 -118.31567383 111.3996582 C-125.20577811 119.63659357 -129.11420752 129.38712527 -129.14793396 140.04612732 C-129.15146081 140.72640946 -129.15498765 141.4066916 -129.15862137 142.10758835 C-129.16929312 144.38651113 -129.1729868 146.66539208 -129.17675781 148.94433594 C-129.18306466 150.57898637 -129.18983061 152.21363508 -129.19702148 153.84828186 C-129.21168805 157.36989929 -129.22341459 160.89151011 -129.23296928 164.41314507 C-129.24844244 169.99128686 -129.27239483 175.56937227 -129.29786682 181.1474762 C-129.36900387 197.01039049 -129.4286991 212.87333767 -129.47998047 228.73632812 C-129.50837517 237.49647429 -129.5438099 246.25656489 -129.58663422 255.01665264 C-129.61326867 260.55094914 -129.63125891 266.0851828 -129.64267147 271.61953056 C-129.65186402 275.08039025 -129.66925728 278.54117441 -129.6888504 282.00198936 C-129.6962599 283.5945643 -129.70040293 285.18715871 -129.70084572 286.77975082 C-129.71064804 306.30350564 -132.34231328 323.7161574 -145.00317383 339.2746582 C-145.65930664 340.10481445 -146.31543945 340.9349707 -146.99145508 341.7902832 C-158.54493792 355.56152783 -175.05491907 364.44274455 -193.00317383 366.2746582 C-196.9982951 366.41082659 -200.98682064 366.38739039 -204.98364258 366.34887695 C-206.5771051 366.34084045 -206.5771051 366.34084045 -208.20275879 366.3326416 C-210.80298151 366.3187523 -213.40303441 366.29928886 -216.00317383 366.2746582 C-215.99429138 366.82874359 -215.98540894 367.38282898 -215.97625732 367.95370483 C-215.88721921 373.76191814 -215.82720745 379.56993509 -215.78344727 385.37866211 C-215.76342993 387.54150274 -215.73620753 389.70428993 -215.70141602 391.86694336 C-215.65246136 394.98996227 -215.63010566 398.11226081 -215.61254883 401.2355957 C-215.59190369 402.1901767 -215.57125854 403.14475769 -215.54998779 404.12826538 C-215.54749006 411.73578009 -217.15999815 418.53043328 -221.82739258 424.67700195 C-222.44227539 425.18360352 -223.0571582 425.69020508 -223.69067383 426.2121582 C-224.59366211 426.99913086 -224.59366211 426.99913086 -225.51489258 427.80200195 C-232.9462354 432.20014362 -240.33227428 432.71448645 -248.8059082 432.67871094 C-250.52720695 432.68900581 -250.52720695 432.68900581 -252.28327942 432.69950867 C-256.05462214 432.71772353 -259.82554681 432.71394698 -263.59692383 432.70825195 C-266.23051081 432.71281584 -268.8640966 432.71812203 -271.49768066 432.72413635 C-277.00850384 432.7341406 -282.51920947 432.73089152 -288.0300293 432.72070312 C-294.38142155 432.70921947 -300.73239165 432.72331085 -307.08372831 432.7500996 C-313.21922428 432.77499942 -319.35452667 432.7774228 -325.49006653 432.77098274 C-328.08951012 432.77082968 -330.6889619 432.77686184 -333.28837585 432.78927422 C-336.92604743 432.80419988 -340.56279618 432.79349449 -344.20043945 432.77636719 C-345.26668045 432.78603516 -346.33292145 432.79570313 -347.43147278 432.80566406 C-355.47844265 432.72658045 -361.81107661 430.83272311 -368.31567383 426.0246582 C-373.34748081 420.87583245 -376.111223 414.60007542 -376.15707397 407.38755798 C-376.16567444 406.37977295 -376.1742749 405.37198792 -376.18313599 404.33366394 C-376.18739594 403.22872086 -376.19165588 402.12377777 -376.19604492 400.98535156 C-376.20422241 399.82079437 -376.2123999 398.65623718 -376.2208252 397.45639038 C-376.2456887 393.59243281 -376.26219977 389.72851207 -376.27661133 385.86450195 C-376.28459684 383.88494098 -376.28459684 383.88494098 -376.29274368 381.86538887 C-376.31437307 376.31595644 -376.33310557 370.76652686 -376.34436607 365.21706295 C-376.36057672 357.28160376 -376.39368262 349.34663641 -376.45076692 341.41136259 C-376.48958604 335.82308175 -376.50901314 330.23493177 -376.51428664 324.64651972 C-376.51792556 321.31366634 -376.53232015 317.98175265 -376.56238937 314.64896965 C-376.59408886 310.92217842 -376.59406917 307.19661782 -376.58666992 303.46972656 C-376.60307526 302.37895309 -376.61948059 301.28817963 -376.63638306 300.16435242 C-376.57134969 292.13123534 -374.78976788 285.33348294 -369.18904686 279.33010769 C-364.60025234 275.09631432 -360.16325821 273.0156198 -353.84570312 273.04760742 C-352.83117065 273.04784912 -351.81663818 273.04809082 -350.7713623 273.04833984 C-349.71735229 273.05857178 -348.66334229 273.06880371 -347.57739258 273.0793457 C-346.59951782 273.08135986 -345.62164307 273.08337402 -344.61413574 273.08544922 C-340.97293383 273.09588691 -337.33179895 273.12380947 -333.69067383 273.1496582 C-325.54379883 273.1909082 -317.39692383 273.2321582 -309.00317383 273.2746582 C-309.00317383 253.4746582 -309.00317383 233.6746582 -309.00317383 213.2746582 C-324.02080339 213.43239244 -324.02080339 213.43239244 -339.0378418 213.63500977 C-340.94033911 213.64670771 -342.84284654 213.65689691 -344.74536133 213.6652832 C-345.70901611 213.68574707 -346.6726709 213.70621094 -347.66552734 213.72729492 C-355.34867081 213.73119203 -362.2284569 212.19622773 -368.40551758 207.4152832 C-369.16541992 206.47942383 -369.16541992 206.47942383 -369.94067383 205.5246582 C-370.72764648 204.60426758 -370.72764648 204.60426758 -371.53051758 203.6652832 C-376.03101627 196.35943387 -376.44569767 189.80083897 -376.4230957 181.41772461 C-376.43156525 180.25243729 -376.44003479 179.08714996 -376.44876099 177.8865509 C-376.472084 174.04966193 -376.4731542 170.21317509 -376.47192383 166.3762207 C-376.4772311 164.37603495 -376.48254549 162.37584907 -376.48879099 160.37566602 C-376.50797913 154.09163404 -376.51092573 147.80773488 -376.50415039 141.52368164 C-376.49751302 135.06376518 -376.52037154 128.6044202 -376.55746412 122.14461958 C-376.58825877 116.57743588 -376.59951065 111.0104351 -376.59562731 105.44316804 C-376.59356979 102.12729235 -376.60115188 98.81195807 -376.6235199 95.49614334 C-376.64574804 91.79376631 -376.63598577 88.09275473 -376.6184082 84.39038086 C-376.63167145 83.30746262 -376.64493469 82.22454437 -376.65859985 81.10881042 C-376.57069586 73.10721694 -374.76618769 66.30912611 -369.18917084 60.32979774 C-364.53404916 56.03598005 -360.06599121 54.03067443 -353.67228699 54.00723267 C-352.61679153 53.9987027 -351.56129608 53.99017273 -350.47381592 53.98138428 C-349.3261676 53.98229065 -348.17851929 53.98319702 -346.99609375 53.98413086 C-345.77926407 53.97741364 -344.56243439 53.97069641 -343.30873108 53.96377563 C-339.97794124 53.94804693 -336.64740078 53.94142141 -333.31659102 53.94014406 C-331.23283752 53.93872015 -329.14910997 53.93444599 -327.06536293 53.92914963 C-319.7876991 53.9106575 -312.51010842 53.90247786 -305.23242188 53.90405273 C-298.46190767 53.90525344 -291.69171261 53.88416324 -284.92127913 53.85256541 C-279.09773174 53.82636092 -273.27428831 53.8156872 -267.45068246 53.81696355 C-263.97729883 53.81747203 -260.50419886 53.81185289 -257.03087425 53.79060745 C-253.1532701 53.76753588 -249.27609898 53.77677152 -245.3984375 53.78881836 C-244.25686188 53.77757935 -243.11528625 53.76634033 -241.93911743 53.75476074 C-234.16438227 53.81606228 -228.7331506 54.94757091 -222.76098633 60.2746582 C-222.2221582 60.9346582 -221.68333008 61.5946582 -221.12817383 62.2746582 C-220.57387695 62.9346582 -220.01958008 63.5946582 -219.44848633 64.2746582 C-216.72109627 68.04877633 -215.75306412 70.7577781 -215.73574829 75.44059753 C-215.72295334 77.00698975 -215.72295334 77.00698975 -215.7098999 78.60502625 C-215.71125946 80.31550896 -215.71125946 80.31550896 -215.71264648 82.06054688 C-215.70592926 83.26587067 -215.69921204 84.47119446 -215.69229126 85.71304321 C-215.67654522 89.01710134 -215.6699359 92.32090807 -215.66865969 95.62498641 C-215.66723665 97.69215896 -215.66296404 99.7593053 -215.65766525 101.82647133 C-215.6391621 109.04692883 -215.63099448 116.26731254 -215.63256836 123.48779297 C-215.63376797 130.20316812 -215.61270217 136.91822093 -215.58108103 143.63351458 C-215.55485881 149.40949956 -215.54420363 155.18537971 -215.54547918 160.9614237 C-215.54598733 164.40635052 -215.54038734 167.85099119 -215.51912308 171.29585838 C-215.49601497 175.1446303 -215.50529791 178.99296707 -215.51733398 182.84179688 C-215.50609497 183.97199753 -215.49485596 185.10219818 -215.48327637 186.26664734 C-215.54551556 194.11879774 -216.85100468 200.45249359 -221.93286133 206.61450195 C-222.57481445 207.14172852 -223.21676758 207.66895508 -223.87817383 208.2121582 C-224.5149707 208.75743164 -225.15176758 209.30270508 -225.80786133 209.86450195 C-231.92515531 213.79393812 -238.07502843 213.54133084 -245.08911133 213.4699707 C-246.0266626 213.46795654 -246.96421387 213.46594238 -247.93017578 213.46386719 C-251.41289198 213.45344917 -254.89553812 213.42552673 -258.37817383 213.3996582 C-270.07254883 213.3377832 -270.07254883 213.3377832 -282.00317383 213.2746582 C-282.00317383 233.0746582 -282.00317383 252.8746582 -282.00317383 273.2746582 C-266.98554427 273.11692396 -266.98554427 273.11692396 -251.96850586 272.91430664 C-250.06600855 272.90260869 -248.16350112 272.8924195 -246.26098633 272.8840332 C-245.29733154 272.86356934 -244.33367676 272.84310547 -243.34082031 272.82202148 C-236.00891819 272.81830254 -228.76314921 273.95963228 -223.08425903 278.9664917 C-216.49933965 285.99405804 -215.56547276 292.9675495 -215.71020508 302.23950195 C-215.71444992 303.27281143 -215.71869476 304.30612091 -215.72306824 305.3707428 C-215.73977989 308.65148642 -215.77741872 311.93160213 -215.81567383 315.2121582 C-215.83073035 317.44457117 -215.84441706 319.67699382 -215.85668945 321.90942383 C-215.88965873 327.36471401 -215.93978296 332.81964123 -216.00317383 338.2746582 C-212.37732812 338.19260293 -208.75302305 338.07987696 -205.12817383 337.9621582 C-204.1149707 337.93959961 -203.10176758 337.91704102 -202.05786133 337.89379883 C-189.75746071 337.46013086 -177.92545919 333.96956923 -168.86254883 325.2043457 C-161.5767585 316.36636526 -157.89368484 306.62568312 -157.8584137 295.24885559 C-157.85312343 294.20559971 -157.85312343 294.20559971 -157.84772629 293.14126796 C-157.83707487 290.81699082 -157.83336448 288.49275473 -157.82958984 286.16845703 C-157.82328167 284.49923531 -157.81651557 282.83001527 -157.80932617 281.16079712 C-157.79467237 277.56825422 -157.78294093 273.97571774 -157.77337837 270.38315773 C-157.757901 264.69654438 -157.73395066 259.00998626 -157.70848083 253.32341003 C-157.63734831 237.15346776 -157.57756352 220.98349383 -157.52636719 204.81347656 C-157.4980116 195.88122243 -157.46260156 186.94902324 -157.41971344 178.01682681 C-157.39302518 172.37046904 -157.37506823 166.7241734 -157.36367619 161.07776511 C-157.35451121 157.55477528 -157.33713096 154.03186052 -157.31749725 150.50891495 C-157.31006187 148.88282776 -157.30594313 147.25672127 -157.30550194 145.63061714 C-157.29435271 122.88346567 -150.88393553 105.59720278 -135.25317383 88.9621582 C-117.92363255 72.44748564 -97.26838892 67.0634967 -73.87036133 67.17700195 C-72.75251251 67.1784169 -71.6346637 67.17983185 -70.48294067 67.18128967 C-66.94799 67.18684198 -63.41310503 67.19938541 -59.87817383 67.2121582 C-57.46671642 67.21717937 -55.055258 67.2217412 -52.64379883 67.22583008 C-46.76356846 67.23679575 -40.88337584 67.25348567 -35.00317383 67.2746582 C-35.02412109 66.01919189 -35.04506836 64.76372559 -35.06665039 63.47021484 C-35.13945478 58.77941446 -35.18511991 54.0886633 -35.22290039 49.39746094 C-35.24292413 47.37328675 -35.2701515 45.34916973 -35.30493164 43.32519531 C-35.35385845 40.40325755 -35.37623533 37.4820894 -35.39379883 34.55981445 C-35.41444397 33.66569351 -35.43508911 32.77157257 -35.45635986 31.85035706 C-35.45946178 23.01852904 -32.1277018 14.73943772 -26.00317383 8.2746582 C-17.67030902 1.57750389 -10.50359056 -0.02525716 0 0 Z " fill="#FEFEFE" transform="translate(630.003173828125,160.725341796875)"/>
<path d="M0 0 C0.96708893 -0.0071553 1.93417786 -0.01431061 2.93057251 -0.02168274 C3.98516663 -0.02437164 5.03976074 -0.02706055 6.12631226 -0.02983093 C7.8002153 -0.03968773 7.8002153 -0.03968773 9.50793457 -0.04974365 C13.20413277 -0.06946703 16.90029033 -0.08113799 20.5965271 -0.09111023 C21.86015453 -0.09518576 23.12378197 -0.09926128 24.42570114 -0.10346031 C30.42608164 -0.12216839 36.4264376 -0.13673386 42.42683947 -0.14507228 C49.33300624 -0.1548299 56.23885124 -0.18111416 63.14490473 -0.22157317 C69.14206493 -0.25549054 75.1390702 -0.26722706 81.13633347 -0.27127647 C83.67914383 -0.2761389 86.22195084 -0.28774297 88.76469803 -0.30631447 C92.33080675 -0.33073866 95.89608248 -0.32973415 99.46224976 -0.32279968 C100.50469849 -0.33560974 101.54714722 -0.3484198 102.6211853 -0.36161804 C112.3018285 -0.29330495 120.35033814 2.37260064 127.4400568 9.12461185 C133.72612881 16.42138393 134.91471927 23.89211076 134.81356812 33.24702454 C134.82430107 34.99780304 134.82430107 34.99780304 134.83525085 36.78395081 C134.85206248 40.61506632 134.83277854 44.44499934 134.81137085 48.27607727 C134.81220018 50.95308988 134.81460725 53.63006236 134.81867981 56.30706787 C134.82318617 61.90616794 134.80742069 67.50493234 134.77938843 73.10395813 C134.74732708 79.55707783 134.74736289 86.00959305 134.7646032 92.46275574 C134.78052099 98.69812622 134.7737022 104.93327723 134.75666618 111.16863823 C134.75149604 113.80993596 134.75195193 116.45125108 134.75821114 119.09254646 C134.76368166 122.78764499 134.74322736 126.48172919 134.71591187 130.17671204 C134.72570068 131.80176918 134.72570068 131.80176918 134.73568726 133.45965576 C134.62396756 142.38034288 132.24704248 149.82647687 126.15512085 156.51045227 C119.38893625 162.12437573 111.18520517 165.2476129 102.44122314 165.29434204 C101.05380165 165.305075 101.05380165 165.305075 99.63835144 165.31602478 C98.13434029 165.32005814 98.13434029 165.32005814 96.59994507 165.32417297 C95.0013842 165.33402977 95.0013842 165.33402977 93.37052917 165.34408569 C89.84690272 165.3637804 86.32331883 165.37547354 82.7996521 165.38545227 C81.5933527 165.3895278 80.3870533 165.39360332 79.14419937 165.39780235 C72.75786766 165.41864791 66.37155733 165.43295557 59.98519897 165.44233704 C53.40486557 165.45339131 46.82487123 165.48778478 40.24465752 165.52750874 C35.17097363 165.55371401 30.09737002 165.56203243 25.02362442 165.56561852 C22.59886513 165.57047519 20.17410921 165.58206277 17.74941635 165.60065651 C14.34645839 165.62512777 10.9443712 165.62406778 7.54135132 165.61714172 C6.5508226 165.62995178 5.56029388 165.64276184 4.53974915 165.65596008 C-4.90227111 165.58634974 -14.92230017 162.9734539 -21.8175354 156.14717102 C-28.15493521 148.22542125 -30.12925694 141.38479744 -30.0128479 131.37373352 C-30.01001801 130.44998932 -30.00718811 129.52624512 -30.00427246 128.57450867 C-29.99312719 125.64026126 -29.96803305 122.70632532 -29.9425354 119.77217102 C-29.93249829 117.7760817 -29.92337372 115.77998756 -29.91519165 113.78388977 C-29.89320637 108.90486453 -29.85871557 104.02607049 -29.8175354 99.14717102 C-32.35305151 99.28407794 -34.88801409 99.42686056 -37.42300415 99.57295227 C-38.1332373 99.61069763 -38.84347046 99.64844299 -39.57522583 99.68733215 C-53.1772085 100.48790822 -65.56269577 104.70793873 -75.03237915 114.87763977 C-83.46860523 125.6029075 -85.02776468 135.91854288 -85.2550354 149.14717102 C-86.19143413 180.48824794 -96.76534064 205.84259062 -118.8175354 228.14717102 C-119.41952759 228.82135071 -120.02151978 229.4955304 -120.64175415 230.19013977 C-128.49368681 238.83319914 -140.05007854 244.95795734 -150.8175354 249.14717102 C-152.21939087 249.69437805 -152.21939087 249.69437805 -153.64956665 250.25263977 C-157.31464946 251.28753985 -160.7263222 251.52910603 -164.5050354 251.52217102 C-165.25381958 251.52346008 -166.00260376 251.52474915 -166.77407837 251.52607727 C-178.55025903 251.31984764 -190.22760294 249.08785889 -201.8175354 247.14717102 C-199.10913032 244.43876594 -196.0272676 243.87273682 -192.4425354 242.83467102 C-161.07537294 233.31831768 -136.30906876 212.97400112 -120.8175354 184.14717102 C-115.03939175 172.35187054 -113.62396536 161.05284026 -113.52697754 148.05726624 C-113.28792102 125.88519003 -108.30338741 109.25747697 -92.5831604 92.71748352 C-77.9556191 79.12296068 -59.76039321 71.73952374 -39.8097229 72.04170227 C-38.36230713 72.05312256 -38.36230713 72.05312256 -36.88565063 72.06477356 C-34.52942181 72.08446959 -32.17357691 72.11209601 -29.8175354 72.14717102 C-29.82641785 71.56802948 -29.83530029 70.98888794 -29.8444519 70.39219666 C-29.93345067 64.32445723 -29.99348595 58.25690543 -30.03726196 52.18867493 C-30.05728629 49.92883259 -30.08451402 47.66904147 -30.11929321 45.40937805 C-30.16821618 42.1473674 -30.19059672 38.88604615 -30.2081604 35.62373352 C-30.22880554 34.62540497 -30.24945068 33.62707642 -30.27072144 32.59849548 C-30.27375565 22.95483627 -27.53936419 15.0060175 -20.88394165 7.90498352 C-14.90843384 2.82184833 -7.80126586 0.03974799 0 0 Z " fill="#FEFEFE" transform="translate(624.8175354003906,404.8528289794922)"/>
<path d="M0 0 C15.27970293 11.34863082 23.3975931 27.4825483 26.60742188 46.09130859 C29.45503616 67.18986369 26.63708776 90.58716229 13.5625 108 C12.3971473 109.3527332 11.20995698 110.68701175 10 112 C9.14535156 113.00740234 9.14535156 113.00740234 8.2734375 114.03515625 C-1.98934356 125.36788682 -18.05024333 132.16420474 -33.18261719 133.14086914 C-53.19304708 133.94152714 -70.6603171 131.18601401 -86.375 117.625 C-100.64023681 103.91285799 -108.67069595 86.41616274 -109.203125 66.55859375 C-109.48295676 44.67824522 -106.32638928 24.2368812 -90.9375 7.375 C-82.84135729 -0.17533534 -72.6811666 -6.11683195 -62 -9 C-61.36666748 -9.17370117 -60.73333496 -9.34740234 -60.08081055 -9.52636719 C-40.05463708 -14.55363347 -17.1457332 -11.61066674 0 0 Z " fill="#FDFDFD" transform="translate(561,715)"/>
<path d="M0 0 C9.9 0 19.8 0 30 0 C31.21474158 4.89431592 32.42388269 9.78983625 33.625 14.6875 C33.81586182 15.46557007 34.00672363 16.24364014 34.20336914 17.04528809 C37.12981458 29.00843864 39.93582728 40.99775528 42.6796875 53.00390625 C42.8372414 53.69293722 42.9947953 54.38196819 43.15712357 55.09187889 C44.75307209 62.0734573 46.3438603 69.05617954 47.92448616 76.04124355 C48.37894273 78.04742486 48.83493513 80.05325009 49.29153442 82.0589447 C49.85814113 84.54918465 50.42178844 87.04010023 50.98214722 89.53175354 C51.23360504 90.63470261 51.48506287 91.73765167 51.74414062 92.87402344 C51.96348267 93.84386169 52.18282471 94.81369995 52.40881348 95.81292725 C52.79450566 97.96053659 52.79450566 97.96053659 54 99 C56.67098874 88.60264568 59.34010402 78.20481233 62.0069313 67.80638981 C63.24575239 62.9762468 64.48518042 58.14626136 65.72607422 53.31665039 C66.92710339 48.64209615 68.12643554 43.96710934 69.32466888 39.29183769 C69.77850629 37.52223137 70.23292042 35.75277283 70.68796539 33.98347664 C73.59347405 22.68436157 76.36234075 11.36489415 79 0 C89.23 0 99.46 0 110 0 C112.37451715 9.23368648 114.74833154 18.46755292 117.1210041 27.70171356 C118.2234848 31.99232961 119.32623976 36.28287473 120.4296875 40.57324219 C125.34875956 59.7001438 130.25501371 78.82897665 135 98 C135.33 98 135.66 98 136 98 C136.17015625 97.25895523 136.3403125 96.51791046 136.515625 95.75440979 C138.67406181 86.35641053 140.83567396 76.95914468 143 67.5625 C143.17131062 66.8187273 143.34262123 66.07495461 143.51912308 65.30864334 C148.54237819 43.50421308 153.65008791 21.72719401 159 0 C169.23 0 179.46 0 190 0 C186.82055191 13.94870416 183.16812515 27.73736295 179.40625 41.5390625 C178.77110302 43.87772704 178.1362204 46.21646339 177.50158691 48.55526733 C175.84195446 54.66889372 174.17897905 60.78160558 172.51519775 66.894104 C170.49944132 74.30209676 168.4875888 81.71115046 166.4752121 89.12006187 C164.90850694 94.88790066 163.34123531 100.65558326 161.77209473 106.42276001 C161.48384575 107.48266836 161.19559677 108.54257671 160.89861298 109.6346035 C160.34463468 111.67140472 159.79031121 113.70811209 159.23560333 115.74471474 C158.05294107 120.0932215 156.87839396 124.44323479 155.73754883 128.80291748 C155.55088905 129.51440634 155.36422928 130.2258952 155.17191315 130.95894432 C154.6916752 132.79661127 154.21604271 134.63548013 153.74084473 136.47445679 C153 139 153 139 152 140 C149.70848583 140.08790975 147.41427476 140.10694038 145.12109375 140.09765625 C144.09110008 140.09553383 144.09110008 140.09553383 143.04029846 140.09336853 C140.83932199 140.08775479 138.63844591 140.07520007 136.4375 140.0625 C134.94856917 140.05748676 133.45963676 140.05292355 131.97070312 140.04882812 C128.31376925 140.03778093 124.65689442 140.02050713 121 140 C114.56429652 118.72986035 108.36630287 97.39972576 102.375 76 C102.06391296 74.89102356 101.75282593 73.78204712 101.43231201 72.63946533 C100.54359914 69.46864733 99.65786109 66.29701677 98.7734375 63.125 C98.37415039 61.69914078 98.37415039 61.69914078 97.96679688 60.24447632 C97.59917236 58.92076523 97.59917236 58.92076523 97.22412109 57.5703125 C96.90415665 56.42199951 96.90415665 56.42199951 96.57772827 55.25048828 C95.96086671 52.84755982 95.46593828 50.43629612 95 48 C94.73548538 48.916604 94.47097076 49.83320801 94.19844055 50.77758789 C91.68536883 59.48509293 89.17042704 68.19205601 86.65372944 76.89851379 C85.3604408 81.37283389 84.06777459 85.8473317 82.77661133 90.32226562 C81.52673979 94.65399899 80.27512826 98.98522634 79.02239037 103.31613159 C78.54863746 104.95505461 78.075475 106.59414844 77.60296059 108.23342896 C74.5371019 118.86785334 71.33475838 129.44650146 68 140 C57.77 140 47.54 140 37 140 C35.11918449 134.35755348 33.33380311 128.82275728 31.83032227 123.08911133 C31.63437155 122.3513273 31.43842083 121.61354326 31.23653221 120.85340214 C30.59373614 118.4303318 29.95503403 116.0062032 29.31640625 113.58203125 C28.85981742 111.85728873 28.40298946 110.13260951 27.94593811 108.4079895 C26.73122527 103.8212755 25.52017889 99.23360138 24.31006622 94.64567184 C23.31311109 90.86735076 22.31424621 87.08953563 21.31541061 83.31171131 C18.41576521 72.34400087 15.52272646 61.37455634 12.63326263 50.40415955 C12.03864578 48.14671736 11.44382708 45.88932847 10.84893799 43.63195801 C9.02184951 36.69801912 7.19794511 29.76325916 5.38156128 22.82650757 C4.87925028 20.90838103 4.3762651 18.99043091 3.87258911 17.07266235 C3.1963447 14.49571865 2.52332619 11.91795854 1.8515625 9.33984375 C1.65893326 8.60750519 1.46630402 7.87516663 1.26783752 7.12063599 C0 2.23013206 0 2.23013206 0 0 Z " fill="#FDFDFD" transform="translate(595,706)"/>
<path d="M0 0 C29.04 0 58.08 0 88 0 C88 8.58 88 17.16 88 26 C68.2 26 48.4 26 28 26 C28 37.55 28 49.1 28 61 C45.16 61 62.32 61 80 61 C80 69.25 80 77.5 80 86 C62.84 86 45.68 86 28 86 C28 103.82 28 121.64 28 140 C18.76 140 9.52 140 0 140 C0 93.8 0 47.6 0 0 Z " fill="#FEFEFE" transform="translate(247,706)"/>
<path d="M0 0 C1.07121094 0.63615234 1.07121094 0.63615234 2.1640625 1.28515625 C11.24351986 7.38913601 16.61539632 17.88386043 19.25 28.3125 C21.93996094 43.96318181 20.81238826 60.14885878 12.4609375 73.94140625 C6.45849119 82.39939878 -1.66542565 88.08972748 -12 90 C-23.95511607 90.86713684 -33.66691803 89.86351883 -43.25 82.125 C-54.26378749 71.40888244 -57.84770323 56.49173084 -58.4375 41.5625 C-58.06513534 28.41640861 -54.27283003 16.03780931 -45.4375 6.125 C-44.2309375 5.073125 -44.2309375 5.073125 -43 4 C-41.9171875 2.9790625 -41.9171875 2.9790625 -40.8125 1.9375 C-29.25813257 -6.02217534 -12.28208411 -7.32815799 0 0 Z " fill="#2D2F34" transform="translate(539,733)"/>
<path d="M0 0 C9.57 0 19.14 0 29 0 C29 37.62 29 75.24 29 114 C48.47 114 67.94 114 88 114 C88 122.58 88 131.16 88 140 C58.96 140 29.92 140 0 140 C0 93.8 0 47.6 0 0 Z " fill="#FDFDFD" transform="translate(356,706)"/>
<path d="M0 0 C20.13 0 40.26 0 61 0 C61 0.66 61 1.32 61 2 C41.53 2 22.06 2 2 2 C2 12.23 2 22.46 2 33 C18.5 33 35 33 52 33 C52 33.33 52 33.66 52 34 C34.84 34 17.68 34 0 34 C0 22.78 0 11.56 0 0 Z " fill="#24262B" transform="translate(275,732)"/>
<path d="M0 0 C0.94205985 2.82617956 1.09846177 4.38050418 1.02172852 7.2878418 C1.00130493 8.16049683 0.98088135 9.03315186 0.95983887 9.93225098 C0.9331311 10.84535034 0.90642334 11.75844971 0.87890625 12.69921875 C0.85824097 13.54150024 0.83757568 14.38378174 0.81628418 15.25158691 C0.73753821 18.39704314 0.64945831 21.5422601 0.5625 24.6875 C0.2840625 35.2371875 0.2840625 35.2371875 0 46 C-17.82 46 -35.64 46 -54 46 C-54 45.67 -54 45.34 -54 45 C-36.66556236 43.83325901 -19.36315158 43.89483742 -2 44 C-2.01571045 42.53361084 -2.01571045 42.53361084 -2.03173828 41.03759766 C-2.06828974 37.36608631 -2.09102662 33.69459061 -2.10986328 30.02294922 C-2.11984159 28.44219242 -2.13342907 26.86145369 -2.15087891 25.28076172 C-2.24369938 16.64845765 -2.32020837 8.39931125 0 0 Z " fill="#1D1F24" transform="translate(595,182)"/>
<path d="M0 0 C0.33 15.18 0.66 30.36 1 46 C-2.44679104 40.82981344 -2.13869592 35.6929329 -2.09765625 29.63671875 C-2.0962413 28.84473587 -2.09482635 28.05275299 -2.09336853 27.23677063 C-2.08779457 24.72030781 -2.07524693 22.20393569 -2.0625 19.6875 C-2.05748163 17.97591275 -2.05291931 16.26432409 -2.04882812 14.55273438 C-2.03868681 10.36842698 -2.01910646 6.18431438 -2 2 C-7.94 2 -13.88 2 -20 2 C-16 0 -16 0 0 0 Z " fill="#3B3D41" transform="translate(595,504)"/>
<path d="M0 0 C0.33 0 0.66 0 1 0 C0.48517081 5.852795 -0.45357192 11.3297637 -2 17 C-4.02350324 13.96474514 -4.32124018 12.80573798 -4.625 9.3125 C-4.69976563 8.50425781 -4.77453125 7.69601562 -4.8515625 6.86328125 C-4.90054688 6.24839844 -4.94953125 5.63351562 -5 5 C-4.34 5 -3.68 5 -3 5 C-3 5.66 -3 6.32 -3 7 C-2.34 7 -1.68 7 -1 7 C-0.67 4.69 -0.34 2.38 0 0 Z " fill="#1C1D20" transform="translate(733,790)"/>
<path d="M0 0 C0.33 0.99 0.66 1.98 1 3 C2.32 2.67 3.64 2.34 5 2 C4.25 9.625 4.25 9.625 2 13 C1.66127487 11.58461283 1.32925376 10.16762037 1 8.75 C0.814375 7.96109375 0.62875 7.1721875 0.4375 6.359375 C0 4 0 4 0 0 Z " fill="#1B1C1F" transform="translate(646,795)"/>
<path d="M0 0 C0 3 0 3 -1.3125 4.38671875 C-2.875 5.59114583 -4.4375 6.79557292 -6 8 C-6.66 7.67 -7.32 7.34 -8 7 C-5.36 4.69 -2.72 2.38 0 0 Z " fill="#1F2024" transform="translate(519,265)"/>
</svg>
